<?xml version="1.0" standalone="no"?>
<!DOCTYPE svg PUBLIC "-//W3C//DTD SVG 20010904//EN"
 "http://www.w3.org/TR/2001/REC-SVG-20010904/DTD/svg10.dtd">
<svg version="1.0" xmlns="http://www.w3.org/2000/svg"
 width="420.000000pt" height="420.000000pt" viewBox="0 0 420.000000 420.000000"
 preserveAspectRatio="xMidYMid meet">
<metadata>
Created by potrace 1.14, written by Peter Selinger 2001-2017
</metadata>
<g transform="translate(0.000000,420.000000) scale(0.100000,-0.100000)"
fill="#000000" stroke="none">
<path d="M1897 3874 c-37 -8 -80 -20 -95 -26 -15 -6 -31 -10 -35 -9 -5 1 -20
-7 -35 -17 -15 -11 -38 -23 -51 -27 -31 -9 -171 -149 -171 -170 0 -8 -4 -15
-10 -15 -5 0 -10 -5 -10 -11 0 -5 -11 -34 -24 -63 -23 -50 -25 -52 -65 -53
-56 -1 -125 -47 -179 -118 -8 -11 -55 -107 -57 -115 0 -3 -3 -10 -7 -16 -4 -6
-9 -22 -12 -37 -2 -15 -7 -31 -11 -37 -3 -5 -8 -19 -11 -30 -2 -11 -6 -29 -9
-40 -8 -30 -15 -62 -20 -90 -8 -43 -14 -74 -20 -100 -9 -44 -15 -74 -21 -109
-3 -18 -7 -42 -9 -53 -3 -11 -7 -46 -10 -77 -4 -31 -8 -63 -10 -71 -4 -17 -16
-91 -20 -130 -2 -14 -6 -52 -11 -85 -16 -121 -9 -543 12 -675 30 -194 60 -297
108 -369 27 -40 31 -51 21 -65 -7 -9 -21 -28 -31 -42 -11 -14 -26 -34 -35 -45
-22 -26 -88 -158 -95 -189 -8 -38 -12 -55 -14 -55 -1 0 -3 -8 -6 -17 -2 -10
-6 -24 -7 -30 -10 -36 -17 -66 -21 -88 -7 -37 -13 -60 -26 -110 -7 -25 -14
-52 -15 -60 -2 -8 -14 -49 -25 -90 -12 -41 -23 -79 -24 -85 -2 -5 -6 -17 -9
-25 -3 -8 -9 -28 -13 -45 -16 -66 -18 -72 -27 -95 -5 -12 -14 -45 -33 -115 -2
-5 -14 -45 -27 -87 -14 -42 -22 -80 -19 -83 3 -3 628 -5 1390 -5 1314 0 1384
1 1379 18 -2 9 -39 137 -81 284 -42 147 -99 364 -126 483 -53 232 -73 287
-145 394 l-46 69 21 63 c12 35 24 72 26 82 2 10 5 26 8 35 3 9 8 31 11 47 2
17 7 41 10 55 8 40 16 83 20 110 2 14 6 39 9 55 3 17 7 44 10 60 13 76 16 97
22 128 3 17 8 46 10 62 5 35 10 62 20 130 14 90 7 284 -14 385 -29 136 -115
395 -178 537 -8 17 -14 34 -14 37 0 5 -49 113 -93 206 -11 25 -28 53 -36 63
-8 9 -11 17 -7 17 8 0 -54 96 -114 175 -71 96 -220 235 -250 235 -6 0 -10 3
-10 8 0 4 -39 27 -87 51 -115 57 -136 65 -195 77 -13 2 -34 7 -48 10 -53 13
-236 12 -303 -2z"/>
</g>
</svg>
